<?xml version="1.0" encoding="utf-8"?>
<!-- Generator: Adobe Illustrator 16.0.0, SVG Export Plug-In . SVG Version: 6.00 Build 0)  -->
<!DOCTYPE svg PUBLIC "-//W3C//DTD SVG 1.1//EN" "http://www.w3.org/Graphics/SVG/1.1/DTD/svg11.dtd">
<svg version="1.1" id="Capa_1" xmlns="http://www.w3.org/2000/svg" xmlns:xlink="http://www.w3.org/1999/xlink" x="0px" y="0px"
	 width="1920px" height="1200px" viewBox="0 0 1920 1200" enable-background="new 0 0 1920 1200" xml:space="preserve">
<path fill="#156B15" d="M376.993,100.123c-22.5-22.5-22.5-59.948,0-83.234c23.287-22.5,59.947-22.5,83.234,0l499.457,500.296
	l500.298-500.296c22.5-22.5,59.948-22.5,82.396,0c23.286,23.287,23.286,60.787,0,83.234l-499.458,499.51l499.458,500.297
	c23.286,22.5,23.286,59.948,0,83.234c-22.5,22.5-59.948,22.5-82.396,0L959.687,682.867l-499.459,500.297
	c-23.286,22.5-59.948,22.5-83.233,0c-22.5-23.286-22.5-60.786,0-83.234l499.458-500.297L376.993,100.123z"/>
</svg>
