<?xml version="1.0" encoding="utf-8"?>
<!-- Generator: Adobe Illustrator 16.0.0, SVG Export Plug-In . SVG Version: 6.00 Build 0)  -->
<!DOCTYPE svg PUBLIC "-//W3C//DTD SVG 1.1//EN" "http://www.w3.org/Graphics/SVG/1.1/DTD/svg11.dtd">
<svg version="1.1" id="Capa_1" xmlns="http://www.w3.org/2000/svg" xmlns:xlink="http://www.w3.org/1999/xlink" x="0px" y="0px"
	 width="1920px" height="1200px" viewBox="0 0 1920 1200" enable-background="new 0 0 1920 1200" xml:space="preserve">
<path fill="#C0C0C0" d="M746.399,278.344h756.838c31.348,0,56.763-25.415,56.763-56.763c0-31.348-25.415-56.763-56.763-56.763
	H746.399c-31.35,0-56.765,25.415-56.765,56.763C689.636,252.929,715.052,278.344,746.399,278.344z"/>
<path fill="#C0C0C0" d="M1503.237,543.239H746.399c-31.35,0-56.765,25.414-56.765,56.763c0,31.348,25.415,56.763,56.765,56.763
	h756.838c31.348,0,56.763-25.415,56.763-56.763C1560,568.65,1534.589,543.239,1503.237,543.239z"/>
<path fill="#C0C0C0" d="M1503.237,921.654H746.399c-31.35,0-56.765,25.414-56.765,56.762s25.415,56.764,56.765,56.764h756.838
	c31.348,0,56.763-25.416,56.763-56.764S1534.589,921.654,1503.237,921.654z"/>
<path fill="#C0C0C0" d="M427.457,185.562v142.149c0,15.416,12.563,27.041,29.229,27.041c16.386,0,29.218-11.878,29.218-27.041
	V115.138c0-14.985-12.287-26.728-27.975-26.728c-13.797,0-20.697,9.256-22.966,12.298c-0.095,0.129-0.188,0.257-0.284,0.394
	l-24.695,34.936c-4.794,5.215-9.06,13.555-9.06,21.555C400.922,172.843,412.782,185.281,427.457,185.562z"/>
<path fill="#C0C0C0" d="M388.874,733.171h111.278c14.563,0,26.417-12.832,26.417-28.604c0-15.605-11.85-28.304-26.417-28.304h-80.8
	v-0.466c0-8.495,19.481-22.243,35.136-33.289c31.141-21.975,69.895-49.317,69.895-96.743c0-45.005-34.876-78.938-81.126-78.938
	c-44.286,0-77.678,30.438-77.678,70.806c0,23.424,15.246,31.738,28.302,31.738c18.687,0,29.854-13.915,29.854-27.36
	c0-8.357,2.147-17.956,18.896-17.956c22.625,0,23.276,20.051,23.276,22.335c0,18.021-23.388,34.867-46.004,51.158
	c-27.958,20.137-59.646,42.962-59.646,78.257v30.318C360.253,722.303,375.054,733.171,388.874,733.171z"/>
<path fill="#C0C0C0" d="M520.624,918.736c0-46.704-27.58-73.489-75.661-73.489c-63.045,0-79.703,45.024-79.703,68.831
	c0,27.716,20.605,30.709,29.464,30.709c17.252,0,28.839-11.592,28.839-28.844c0-6.639,2.36-14.256,20.765-14.256
	c13.226,0,18.61,1.906,18.61,21.069c0,18.727-4.021,20.765-19.85,20.765c-15.205,0-26.667,12-26.667,27.908
	c0,15.738,11.604,27.609,26.985,27.609c20.908,0,25.106,8.537,25.106,22.314v5.898c0,23.182-9.041,27.575-25.726,27.575
	c-23.019,0-24.809-11.854-24.809-15.485c0-13.74-9.108-27.604-29.46-27.604c-17.861,0-28.525,11.129-28.525,29.775
	c0,33.969,29.123,70.068,83.094,70.068c52.426,0,83.729-31.526,83.729-84.331v-5.899c0-21.647-6.927-39.602-19.92-52.509
	C515.799,955.969,520.624,938.785,520.624,918.736z"/>
</svg>
