<?xml version="1.0" encoding="utf-8"?>
<!-- Generator: Adobe Illustrator 16.0.0, SVG Export Plug-In . SVG Version: 6.00 Build 0)  -->
<!DOCTYPE svg PUBLIC "-//W3C//DTD SVG 1.1//EN" "http://www.w3.org/Graphics/SVG/1.1/DTD/svg11.dtd">
<svg version="1.1" id="Capa_1" xmlns="http://www.w3.org/2000/svg" xmlns:xlink="http://www.w3.org/1999/xlink" x="0px" y="0px"
	 width="1920px" height="1200px" viewBox="0 0 1920 1200" enable-background="new 0 0 1920 1200" xml:space="preserve">
<path d="M746.399,278.344h756.838c31.348,0,56.763-25.415,56.763-56.763c0-31.348-25.415-56.763-56.763-56.763H746.399
	c-31.349,0-56.764,25.415-56.764,56.763C689.636,252.929,715.052,278.344,746.399,278.344z"/>
<path d="M1503.237,543.239H746.399c-31.349,0-56.764,25.414-56.764,56.763c0,31.348,25.415,56.763,56.764,56.763h756.838
	c31.348,0,56.763-25.415,56.763-56.763C1560,568.65,1534.589,543.239,1503.237,543.239z"/>
<path d="M1503.237,921.654H746.399c-31.349,0-56.764,25.414-56.764,56.762s25.415,56.764,56.764,56.764h756.838
	c31.348,0,56.763-25.416,56.763-56.764S1534.589,921.654,1503.237,921.654z"/>
<circle cx="485.904" cy="221.581" r="59.858"/>
<circle cx="485.904" cy="600.003" r="59.858"/>
<circle cx="485.904" cy="978.425" r="59.858"/>
</svg>
